<svg width="500" height="500" xmlns="http://www.w3.org/2000/svg"><g transform="matrix(1.61143 1.05843 -1.11918 1.57153 273.576 -344.244)"><ellipse cx="192.498" cy="220.589" rx="8.758" ry="17.592" fill="#1e8f5c"/><ellipse cx="213.765" cy="236.606" rx="3.705" ry="6.545" transform="rotate(-9.651 93.098 342.775) skewX(-.057)" fill="#f6ca6c"/></g><g transform="matrix(24.60114 0 0 15.66253 -5524.674 -2918.313)"><path d="M235.996 214.62v-6.94l-6.1-12.16h2.6l4.68 9.27 4.7-9.27h2.6l-6.1 12.16v6.94h-2.38z" style="white-space:pre" fill="#333"/><path d="M237.187 205.472l-4.5-9.026h9.001l-4.501 9.026z" fill="rgba(46,157,255,.57)"/><path fill="#6f3200" d="M243.014 189.275l.268.314-3.918 8.24-.268-.314zM237.213 201.151l.268.314-.845 1.777-.268-.314z"/></g><path d="M307.174 421.214l98.036 47.247H209.137l98.037-47.247z" fill="#333"/><path d="M106.849 349.32l-7.5-28.84c-2.307-8.467-8.46-35.967-18.46-82.5-10-46.54-20.193-83.653-30.58-111.34-10.38-27.693-22.687-46.157-36.92-55.39-3.847-1.92-5.77-4.42-5.77-7.5 0-7.307 10.387-13.267 31.16-17.88 20.767-4.613 36.823-6.92 48.17-6.92 11.347 0 18.173 3.27 20.48 9.81 6.92 14.227 15.767 46.147 26.54 95.76 21.92 103.84 38.073 169.223 48.46 196.15 2.307 5.38 5.19 8.07 8.65 8.07s7.017-3.363 10.67-10.09c3.653-6.733 8.653-16.35 15-28.85 6.347-12.5 14.903-34.71 25.67-66.63 10.773-31.92 16.16-59.61 16.16-83.07 0-36.153-11.923-61.73-35.77-76.73-1.927-2.307-2.89-4.807-2.89-7.5 0-8.08 11.153-16.157 33.46-24.23 22.307-8.073 42.5-12.11 60.58-12.11 11.92 0 17.88 5.577 17.88 16.73 0 34.613-6.923 74.707-20.77 120.28-13.84 45.573-30.377 87.88-49.61 126.92-19.227 39.033-37.11 72.78-53.65 101.24-26.153 44.233-42.69 66.35-49.61 66.35-3.467 0-6.737-2.693-9.81-8.08-11.54-16.54-25.387-54.423-41.54-113.65z" style="white-space:pre" fill="#333"/></svg>